<mxfile host="app.diagrams.net" modified="2023-10-24T22:33:29.648Z" agent="Mozilla/5.0 (Windows NT 10.0; Win64; x64) AppleWebKit/537.36 (KHTML, like Gecko) Chrome/118.0.0.0 Safari/537.36" etag="2zFGU2u1hikJAflQVu7o" version="21.2.3" type="device">
  <diagram name="Page-1" id="5bKGs6VIPu-2fnJ7-1S9">
    <mxGraphModel dx="2625" dy="2509" grid="1" gridSize="10" guides="1" tooltips="1" connect="1" arrows="1" fold="1" page="1" pageScale="1" pageWidth="1376" pageHeight="1154" math="0" shadow="0">
      <root>
        <mxCell id="0" />
        <mxCell id="1" parent="0" />
        <mxCell id="UQ3AOjmW09rgCbUPbbze-11" style="rounded=0;orthogonalLoop=1;jettySize=auto;html=1;endArrow=none;endFill=0;" edge="1" parent="1" source="UQ3AOjmW09rgCbUPbbze-1" target="UQ3AOjmW09rgCbUPbbze-6">
          <mxGeometry relative="1" as="geometry" />
        </mxCell>
        <mxCell id="UQ3AOjmW09rgCbUPbbze-1" value="Látogató" style="shape=umlActor;verticalLabelPosition=bottom;verticalAlign=top;html=1;outlineConnect=0;" vertex="1" parent="1">
          <mxGeometry x="150" y="-90" width="30" height="60" as="geometry" />
        </mxCell>
        <mxCell id="UQ3AOjmW09rgCbUPbbze-2" value="Admin" style="shape=umlActor;verticalLabelPosition=bottom;verticalAlign=top;html=1;outlineConnect=0;" vertex="1" parent="1">
          <mxGeometry x="170" y="1160" width="30" height="60" as="geometry" />
        </mxCell>
        <mxCell id="UQ3AOjmW09rgCbUPbbze-3" value="Bejelentkezett felhasználó" style="shape=umlActor;verticalLabelPosition=bottom;verticalAlign=top;html=1;outlineConnect=0;" vertex="1" parent="1">
          <mxGeometry x="150" y="520" width="30" height="60" as="geometry" />
        </mxCell>
        <mxCell id="UQ3AOjmW09rgCbUPbbze-4" value="Adatbázis" style="shape=umlActor;verticalLabelPosition=bottom;verticalAlign=top;html=1;outlineConnect=0;" vertex="1" parent="1">
          <mxGeometry x="1270" y="300" width="30" height="60" as="geometry" />
        </mxCell>
        <mxCell id="UQ3AOjmW09rgCbUPbbze-6" value="Regisztrál" style="ellipse;whiteSpace=wrap;html=1;" vertex="1" parent="1">
          <mxGeometry x="350" y="-100" width="120" height="80" as="geometry" />
        </mxCell>
        <mxCell id="UQ3AOjmW09rgCbUPbbze-7" value="Bejelentkezik" style="ellipse;whiteSpace=wrap;html=1;" vertex="1" parent="1">
          <mxGeometry x="350" width="120" height="80" as="geometry" />
        </mxCell>
        <mxCell id="UQ3AOjmW09rgCbUPbbze-14" style="rounded=0;orthogonalLoop=1;jettySize=auto;html=1;dashed=1;endArrow=open;endFill=0;" edge="1" parent="1" source="UQ3AOjmW09rgCbUPbbze-8" target="UQ3AOjmW09rgCbUPbbze-9">
          <mxGeometry relative="1" as="geometry" />
        </mxCell>
        <mxCell id="UQ3AOjmW09rgCbUPbbze-15" value="&amp;lt;&amp;lt;include&amp;gt;&amp;gt;" style="edgeLabel;html=1;align=center;verticalAlign=middle;resizable=0;points=[];" vertex="1" connectable="0" parent="UQ3AOjmW09rgCbUPbbze-14">
          <mxGeometry x="0.2885" y="4" relative="1" as="geometry">
            <mxPoint x="-18" y="-2" as="offset" />
          </mxGeometry>
        </mxCell>
        <mxCell id="UQ3AOjmW09rgCbUPbbze-8" value="Nyugtát létrehoz" style="ellipse;whiteSpace=wrap;html=1;" vertex="1" parent="1">
          <mxGeometry x="350" y="-200" width="120" height="80" as="geometry" />
        </mxCell>
        <mxCell id="UQ3AOjmW09rgCbUPbbze-9" value="Termékeket hozzáad" style="ellipse;whiteSpace=wrap;html=1;" vertex="1" parent="1">
          <mxGeometry x="580" y="-260" width="120" height="80" as="geometry" />
        </mxCell>
        <mxCell id="UQ3AOjmW09rgCbUPbbze-10" value="Végösszeg kiszámítása" style="ellipse;whiteSpace=wrap;html=1;" vertex="1" parent="1">
          <mxGeometry x="580" y="-160" width="120" height="80" as="geometry" />
        </mxCell>
        <mxCell id="UQ3AOjmW09rgCbUPbbze-12" style="rounded=0;orthogonalLoop=1;jettySize=auto;html=1;endArrow=none;endFill=0;" edge="1" parent="1" source="UQ3AOjmW09rgCbUPbbze-1" target="UQ3AOjmW09rgCbUPbbze-7">
          <mxGeometry relative="1" as="geometry">
            <mxPoint x="190" y="-17" as="sourcePoint" />
            <mxPoint x="381" y="-107" as="targetPoint" />
          </mxGeometry>
        </mxCell>
        <mxCell id="UQ3AOjmW09rgCbUPbbze-13" style="rounded=0;orthogonalLoop=1;jettySize=auto;html=1;endArrow=none;endFill=0;" edge="1" parent="1" source="UQ3AOjmW09rgCbUPbbze-1" target="UQ3AOjmW09rgCbUPbbze-8">
          <mxGeometry relative="1" as="geometry">
            <mxPoint x="200" y="-7" as="sourcePoint" />
            <mxPoint x="391" y="-97" as="targetPoint" />
          </mxGeometry>
        </mxCell>
        <mxCell id="UQ3AOjmW09rgCbUPbbze-16" style="rounded=0;orthogonalLoop=1;jettySize=auto;html=1;dashed=1;endArrow=open;endFill=0;" edge="1" parent="1" source="UQ3AOjmW09rgCbUPbbze-8" target="UQ3AOjmW09rgCbUPbbze-10">
          <mxGeometry relative="1" as="geometry">
            <mxPoint x="582" y="-164" as="sourcePoint" />
            <mxPoint x="710" y="-196" as="targetPoint" />
          </mxGeometry>
        </mxCell>
        <mxCell id="UQ3AOjmW09rgCbUPbbze-17" value="&amp;lt;&amp;lt;include&amp;gt;&amp;gt;" style="edgeLabel;html=1;align=center;verticalAlign=middle;resizable=0;points=[];" vertex="1" connectable="0" parent="UQ3AOjmW09rgCbUPbbze-16">
          <mxGeometry x="0.2885" y="4" relative="1" as="geometry">
            <mxPoint x="-18" y="-2" as="offset" />
          </mxGeometry>
        </mxCell>
        <mxCell id="UQ3AOjmW09rgCbUPbbze-18" value="Nyugtákat kezel" style="ellipse;whiteSpace=wrap;html=1;" vertex="1" parent="1">
          <mxGeometry x="350" y="190" width="120" height="80" as="geometry" />
        </mxCell>
        <mxCell id="UQ3AOjmW09rgCbUPbbze-19" value="Csoportokat kezel" style="ellipse;whiteSpace=wrap;html=1;" vertex="1" parent="1">
          <mxGeometry x="360" y="530" width="120" height="80" as="geometry" />
        </mxCell>
        <mxCell id="UQ3AOjmW09rgCbUPbbze-20" value="Résztvevőket kezel" style="ellipse;whiteSpace=wrap;html=1;" vertex="1" parent="1">
          <mxGeometry x="355" y="880" width="120" height="80" as="geometry" />
        </mxCell>
        <mxCell id="UQ3AOjmW09rgCbUPbbze-21" value="Hozzáad" style="ellipse;whiteSpace=wrap;html=1;" vertex="1" parent="1">
          <mxGeometry x="360" y="320" width="120" height="80" as="geometry" />
        </mxCell>
        <mxCell id="UQ3AOjmW09rgCbUPbbze-22" value="Listáz" style="ellipse;whiteSpace=wrap;html=1;" vertex="1" parent="1">
          <mxGeometry x="170" y="90" width="120" height="80" as="geometry" />
        </mxCell>
        <mxCell id="UQ3AOjmW09rgCbUPbbze-30" style="rounded=0;orthogonalLoop=1;jettySize=auto;html=1;endArrow=none;endFill=0;" edge="1" parent="1" source="UQ3AOjmW09rgCbUPbbze-27" target="UQ3AOjmW09rgCbUPbbze-4">
          <mxGeometry relative="1" as="geometry" />
        </mxCell>
        <mxCell id="UQ3AOjmW09rgCbUPbbze-27" value="Adatok kezelése" style="ellipse;whiteSpace=wrap;html=1;" vertex="1" parent="1">
          <mxGeometry x="1070" y="290" width="120" height="80" as="geometry" />
        </mxCell>
        <mxCell id="UQ3AOjmW09rgCbUPbbze-28" style="rounded=0;orthogonalLoop=1;jettySize=auto;html=1;dashed=1;endArrow=open;endFill=0;" edge="1" parent="1" source="UQ3AOjmW09rgCbUPbbze-6" target="UQ3AOjmW09rgCbUPbbze-27">
          <mxGeometry relative="1" as="geometry">
            <mxPoint x="932" y="146" as="sourcePoint" />
            <mxPoint x="1060" y="114" as="targetPoint" />
          </mxGeometry>
        </mxCell>
        <mxCell id="UQ3AOjmW09rgCbUPbbze-29" value="&amp;lt;&amp;lt;include&amp;gt;&amp;gt;" style="edgeLabel;html=1;align=center;verticalAlign=middle;resizable=0;points=[];" vertex="1" connectable="0" parent="UQ3AOjmW09rgCbUPbbze-28">
          <mxGeometry x="0.2885" y="4" relative="1" as="geometry">
            <mxPoint x="-292" y="-160" as="offset" />
          </mxGeometry>
        </mxCell>
        <mxCell id="UQ3AOjmW09rgCbUPbbze-31" style="rounded=0;orthogonalLoop=1;jettySize=auto;html=1;dashed=1;endArrow=open;endFill=0;" edge="1" parent="1" source="UQ3AOjmW09rgCbUPbbze-7" target="UQ3AOjmW09rgCbUPbbze-27">
          <mxGeometry relative="1" as="geometry">
            <mxPoint x="538" y="101" as="sourcePoint" />
            <mxPoint x="922" y="409" as="targetPoint" />
          </mxGeometry>
        </mxCell>
        <mxCell id="UQ3AOjmW09rgCbUPbbze-32" value="&amp;lt;&amp;lt;include&amp;gt;&amp;gt;" style="edgeLabel;html=1;align=center;verticalAlign=middle;resizable=0;points=[];" vertex="1" connectable="0" parent="UQ3AOjmW09rgCbUPbbze-31">
          <mxGeometry x="0.2885" y="4" relative="1" as="geometry">
            <mxPoint x="-329" y="-127" as="offset" />
          </mxGeometry>
        </mxCell>
        <mxCell id="UQ3AOjmW09rgCbUPbbze-35" style="rounded=0;orthogonalLoop=1;jettySize=auto;html=1;dashed=1;endArrow=open;endFill=0;" edge="1" parent="1" source="UQ3AOjmW09rgCbUPbbze-18" target="UQ3AOjmW09rgCbUPbbze-27">
          <mxGeometry relative="1" as="geometry">
            <mxPoint x="558" y="121" as="sourcePoint" />
            <mxPoint x="942" y="429" as="targetPoint" />
          </mxGeometry>
        </mxCell>
        <mxCell id="UQ3AOjmW09rgCbUPbbze-36" value="&amp;lt;&amp;lt;include&amp;gt;&amp;gt;" style="edgeLabel;html=1;align=center;verticalAlign=middle;resizable=0;points=[];" vertex="1" connectable="0" parent="UQ3AOjmW09rgCbUPbbze-35">
          <mxGeometry x="0.2885" y="4" relative="1" as="geometry">
            <mxPoint x="-148" y="-18" as="offset" />
          </mxGeometry>
        </mxCell>
        <mxCell id="UQ3AOjmW09rgCbUPbbze-39" style="rounded=0;orthogonalLoop=1;jettySize=auto;html=1;dashed=1;endArrow=open;endFill=0;" edge="1" parent="1" source="UQ3AOjmW09rgCbUPbbze-19" target="UQ3AOjmW09rgCbUPbbze-27">
          <mxGeometry relative="1" as="geometry">
            <mxPoint x="718" y="409" as="sourcePoint" />
            <mxPoint x="912" y="441" as="targetPoint" />
          </mxGeometry>
        </mxCell>
        <mxCell id="UQ3AOjmW09rgCbUPbbze-40" value="&amp;lt;&amp;lt;include&amp;gt;&amp;gt;" style="edgeLabel;html=1;align=center;verticalAlign=middle;resizable=0;points=[];" vertex="1" connectable="0" parent="UQ3AOjmW09rgCbUPbbze-39">
          <mxGeometry x="0.2885" y="4" relative="1" as="geometry">
            <mxPoint x="-171" y="94" as="offset" />
          </mxGeometry>
        </mxCell>
        <mxCell id="UQ3AOjmW09rgCbUPbbze-41" style="rounded=0;orthogonalLoop=1;jettySize=auto;html=1;dashed=1;endArrow=open;endFill=0;" edge="1" parent="1" source="UQ3AOjmW09rgCbUPbbze-20" target="UQ3AOjmW09rgCbUPbbze-27">
          <mxGeometry relative="1" as="geometry">
            <mxPoint x="728" y="419" as="sourcePoint" />
            <mxPoint x="922" y="451" as="targetPoint" />
          </mxGeometry>
        </mxCell>
        <mxCell id="UQ3AOjmW09rgCbUPbbze-42" value="&amp;lt;&amp;lt;include&amp;gt;&amp;gt;" style="edgeLabel;html=1;align=center;verticalAlign=middle;resizable=0;points=[];" vertex="1" connectable="0" parent="UQ3AOjmW09rgCbUPbbze-41">
          <mxGeometry x="0.2885" y="4" relative="1" as="geometry">
            <mxPoint x="-182" y="139" as="offset" />
          </mxGeometry>
        </mxCell>
        <mxCell id="UQ3AOjmW09rgCbUPbbze-45" style="rounded=0;orthogonalLoop=1;jettySize=auto;html=1;dashed=1;endArrow=none;endFill=0;startArrow=open;startFill=0;" edge="1" parent="1" source="UQ3AOjmW09rgCbUPbbze-18" target="UQ3AOjmW09rgCbUPbbze-22">
          <mxGeometry relative="1" as="geometry">
            <mxPoint x="710" y="300" as="sourcePoint" />
            <mxPoint x="960" y="300" as="targetPoint" />
          </mxGeometry>
        </mxCell>
        <mxCell id="UQ3AOjmW09rgCbUPbbze-46" value="&amp;lt;&amp;lt;extend&amp;gt;&amp;gt;" style="edgeLabel;html=1;align=center;verticalAlign=middle;resizable=0;points=[];" vertex="1" connectable="0" parent="UQ3AOjmW09rgCbUPbbze-45">
          <mxGeometry x="0.2885" y="4" relative="1" as="geometry">
            <mxPoint x="5" y="-2" as="offset" />
          </mxGeometry>
        </mxCell>
        <mxCell id="UQ3AOjmW09rgCbUPbbze-48" style="rounded=0;orthogonalLoop=1;jettySize=auto;html=1;dashed=1;endArrow=none;endFill=0;startArrow=open;startFill=0;" edge="1" parent="1" source="UQ3AOjmW09rgCbUPbbze-18" target="UQ3AOjmW09rgCbUPbbze-21">
          <mxGeometry relative="1" as="geometry">
            <mxPoint x="476" y="346" as="sourcePoint" />
            <mxPoint x="594" y="315" as="targetPoint" />
          </mxGeometry>
        </mxCell>
        <mxCell id="UQ3AOjmW09rgCbUPbbze-49" value="&amp;lt;&amp;lt;extend&amp;gt;&amp;gt;" style="edgeLabel;html=1;align=center;verticalAlign=middle;resizable=0;points=[];" vertex="1" connectable="0" parent="UQ3AOjmW09rgCbUPbbze-48">
          <mxGeometry x="0.2885" y="4" relative="1" as="geometry">
            <mxPoint x="8" y="-4" as="offset" />
          </mxGeometry>
        </mxCell>
        <mxCell id="UQ3AOjmW09rgCbUPbbze-59" style="rounded=0;orthogonalLoop=1;jettySize=auto;html=1;endArrow=none;endFill=0;" edge="1" parent="1" source="UQ3AOjmW09rgCbUPbbze-3" target="UQ3AOjmW09rgCbUPbbze-18">
          <mxGeometry relative="1" as="geometry">
            <mxPoint x="190" y="87" as="sourcePoint" />
            <mxPoint x="370" y="168" as="targetPoint" />
          </mxGeometry>
        </mxCell>
        <mxCell id="UQ3AOjmW09rgCbUPbbze-60" style="rounded=0;orthogonalLoop=1;jettySize=auto;html=1;endArrow=none;endFill=0;" edge="1" parent="1" source="UQ3AOjmW09rgCbUPbbze-3" target="UQ3AOjmW09rgCbUPbbze-19">
          <mxGeometry relative="1" as="geometry">
            <mxPoint x="190" y="547" as="sourcePoint" />
            <mxPoint x="383" y="382" as="targetPoint" />
          </mxGeometry>
        </mxCell>
        <mxCell id="UQ3AOjmW09rgCbUPbbze-61" style="rounded=0;orthogonalLoop=1;jettySize=auto;html=1;endArrow=none;endFill=0;" edge="1" parent="1" source="UQ3AOjmW09rgCbUPbbze-3" target="UQ3AOjmW09rgCbUPbbze-20">
          <mxGeometry relative="1" as="geometry">
            <mxPoint x="190" y="560" as="sourcePoint" />
            <mxPoint x="360" y="560" as="targetPoint" />
          </mxGeometry>
        </mxCell>
        <mxCell id="UQ3AOjmW09rgCbUPbbze-62" value="Felhasználókat kezel" style="ellipse;whiteSpace=wrap;html=1;" vertex="1" parent="1">
          <mxGeometry x="590" y="1150" width="120" height="80" as="geometry" />
        </mxCell>
        <mxCell id="UQ3AOjmW09rgCbUPbbze-63" style="rounded=0;orthogonalLoop=1;jettySize=auto;html=1;endArrow=none;endFill=0;" edge="1" parent="1" source="UQ3AOjmW09rgCbUPbbze-2" target="UQ3AOjmW09rgCbUPbbze-62">
          <mxGeometry relative="1" as="geometry">
            <mxPoint x="190" y="573" as="sourcePoint" />
            <mxPoint x="383" y="738" as="targetPoint" />
          </mxGeometry>
        </mxCell>
        <mxCell id="UQ3AOjmW09rgCbUPbbze-64" style="rounded=0;orthogonalLoop=1;jettySize=auto;html=1;dashed=1;endArrow=open;endFill=0;" edge="1" parent="1" source="UQ3AOjmW09rgCbUPbbze-62" target="UQ3AOjmW09rgCbUPbbze-27">
          <mxGeometry relative="1" as="geometry">
            <mxPoint x="684" y="777" as="sourcePoint" />
            <mxPoint x="1106" y="373" as="targetPoint" />
          </mxGeometry>
        </mxCell>
        <mxCell id="UQ3AOjmW09rgCbUPbbze-65" value="&amp;lt;&amp;lt;include&amp;gt;&amp;gt;" style="edgeLabel;html=1;align=center;verticalAlign=middle;resizable=0;points=[];" vertex="1" connectable="0" parent="UQ3AOjmW09rgCbUPbbze-64">
          <mxGeometry x="0.2885" y="4" relative="1" as="geometry">
            <mxPoint x="-241" y="312" as="offset" />
          </mxGeometry>
        </mxCell>
        <mxCell id="UQ3AOjmW09rgCbUPbbze-73" value="Módosít" style="ellipse;whiteSpace=wrap;html=1;" vertex="1" parent="1">
          <mxGeometry x="510" y="280" width="120" height="80" as="geometry" />
        </mxCell>
        <mxCell id="UQ3AOjmW09rgCbUPbbze-74" style="rounded=0;orthogonalLoop=1;jettySize=auto;html=1;dashed=1;endArrow=none;endFill=0;startArrow=open;startFill=0;" edge="1" parent="1" target="UQ3AOjmW09rgCbUPbbze-73" source="UQ3AOjmW09rgCbUPbbze-18">
          <mxGeometry relative="1" as="geometry">
            <mxPoint x="453" y="343" as="sourcePoint" />
            <mxPoint x="604" y="325" as="targetPoint" />
          </mxGeometry>
        </mxCell>
        <mxCell id="UQ3AOjmW09rgCbUPbbze-75" value="&amp;lt;&amp;lt;extend&amp;gt;&amp;gt;" style="edgeLabel;html=1;align=center;verticalAlign=middle;resizable=0;points=[];" vertex="1" connectable="0" parent="UQ3AOjmW09rgCbUPbbze-74">
          <mxGeometry x="0.2885" y="4" relative="1" as="geometry">
            <mxPoint x="-18" y="-2" as="offset" />
          </mxGeometry>
        </mxCell>
        <mxCell id="UQ3AOjmW09rgCbUPbbze-76" value="Töröl" style="ellipse;whiteSpace=wrap;html=1;" vertex="1" parent="1">
          <mxGeometry x="160" y="200" width="120" height="80" as="geometry" />
        </mxCell>
        <mxCell id="UQ3AOjmW09rgCbUPbbze-77" style="rounded=0;orthogonalLoop=1;jettySize=auto;html=1;dashed=1;endArrow=none;endFill=0;startArrow=open;startFill=0;" edge="1" parent="1" target="UQ3AOjmW09rgCbUPbbze-76" source="UQ3AOjmW09rgCbUPbbze-18">
          <mxGeometry relative="1" as="geometry">
            <mxPoint x="610" y="263" as="sourcePoint" />
            <mxPoint x="761" y="245" as="targetPoint" />
          </mxGeometry>
        </mxCell>
        <mxCell id="UQ3AOjmW09rgCbUPbbze-78" value="&amp;lt;&amp;lt;extend&amp;gt;&amp;gt;" style="edgeLabel;html=1;align=center;verticalAlign=middle;resizable=0;points=[];" vertex="1" connectable="0" parent="UQ3AOjmW09rgCbUPbbze-77">
          <mxGeometry x="0.2885" y="4" relative="1" as="geometry">
            <mxPoint x="5" y="-20" as="offset" />
          </mxGeometry>
        </mxCell>
        <mxCell id="UQ3AOjmW09rgCbUPbbze-79" value="Módosít" style="ellipse;whiteSpace=wrap;html=1;" vertex="1" parent="1">
          <mxGeometry x="590" y="1290" width="120" height="80" as="geometry" />
        </mxCell>
        <mxCell id="UQ3AOjmW09rgCbUPbbze-80" style="rounded=0;orthogonalLoop=1;jettySize=auto;html=1;dashed=1;endArrow=none;endFill=0;startArrow=open;startFill=0;" edge="1" parent="1" target="UQ3AOjmW09rgCbUPbbze-79" source="UQ3AOjmW09rgCbUPbbze-62">
          <mxGeometry relative="1" as="geometry">
            <mxPoint x="623" y="1010" as="sourcePoint" />
            <mxPoint x="814" y="1065" as="targetPoint" />
          </mxGeometry>
        </mxCell>
        <mxCell id="UQ3AOjmW09rgCbUPbbze-81" value="&amp;lt;&amp;lt;extend&amp;gt;&amp;gt;" style="edgeLabel;html=1;align=center;verticalAlign=middle;resizable=0;points=[];" vertex="1" connectable="0" parent="UQ3AOjmW09rgCbUPbbze-80">
          <mxGeometry x="0.2885" y="4" relative="1" as="geometry">
            <mxPoint x="-18" y="-2" as="offset" />
          </mxGeometry>
        </mxCell>
        <mxCell id="UQ3AOjmW09rgCbUPbbze-82" value="Töröl" style="ellipse;whiteSpace=wrap;html=1;" vertex="1" parent="1">
          <mxGeometry x="730" y="1270" width="120" height="80" as="geometry" />
        </mxCell>
        <mxCell id="UQ3AOjmW09rgCbUPbbze-84" style="rounded=0;orthogonalLoop=1;jettySize=auto;html=1;dashed=1;endArrow=none;endFill=0;startArrow=open;startFill=0;" edge="1" parent="1" source="UQ3AOjmW09rgCbUPbbze-62" target="UQ3AOjmW09rgCbUPbbze-82">
          <mxGeometry relative="1" as="geometry">
            <mxPoint x="640" y="1000" as="sourcePoint" />
            <mxPoint x="640" y="1060" as="targetPoint" />
          </mxGeometry>
        </mxCell>
        <mxCell id="UQ3AOjmW09rgCbUPbbze-85" value="&amp;lt;&amp;lt;extend&amp;gt;&amp;gt;" style="edgeLabel;html=1;align=center;verticalAlign=middle;resizable=0;points=[];" vertex="1" connectable="0" parent="UQ3AOjmW09rgCbUPbbze-84">
          <mxGeometry x="0.2885" y="4" relative="1" as="geometry">
            <mxPoint x="-18" y="-2" as="offset" />
          </mxGeometry>
        </mxCell>
        <mxCell id="UQ3AOjmW09rgCbUPbbze-86" value="Adatok beolvasása képről" style="ellipse;whiteSpace=wrap;html=1;" vertex="1" parent="1">
          <mxGeometry x="520" y="410" width="120" height="80" as="geometry" />
        </mxCell>
        <mxCell id="UQ3AOjmW09rgCbUPbbze-88" style="rounded=0;orthogonalLoop=1;jettySize=auto;html=1;dashed=1;endArrow=open;endFill=0;" edge="1" parent="1" source="UQ3AOjmW09rgCbUPbbze-21" target="UQ3AOjmW09rgCbUPbbze-86">
          <mxGeometry relative="1" as="geometry">
            <mxPoint x="484" y="562" as="sourcePoint" />
            <mxPoint x="1086" y="358" as="targetPoint" />
          </mxGeometry>
        </mxCell>
        <mxCell id="UQ3AOjmW09rgCbUPbbze-89" value="&amp;lt;&amp;lt;include&amp;gt;&amp;gt;" style="edgeLabel;html=1;align=center;verticalAlign=middle;resizable=0;points=[];" vertex="1" connectable="0" parent="UQ3AOjmW09rgCbUPbbze-88">
          <mxGeometry x="0.2885" y="4" relative="1" as="geometry">
            <mxPoint x="-28" y="3" as="offset" />
          </mxGeometry>
        </mxCell>
        <mxCell id="UQ3AOjmW09rgCbUPbbze-90" style="rounded=0;orthogonalLoop=1;jettySize=auto;html=1;dashed=1;endArrow=open;endFill=0;" edge="1" parent="1" source="UQ3AOjmW09rgCbUPbbze-73" target="UQ3AOjmW09rgCbUPbbze-86">
          <mxGeometry relative="1" as="geometry">
            <mxPoint x="476" y="396" as="sourcePoint" />
            <mxPoint x="544" y="434" as="targetPoint" />
          </mxGeometry>
        </mxCell>
        <mxCell id="UQ3AOjmW09rgCbUPbbze-91" value="&amp;lt;&amp;lt;include&amp;gt;&amp;gt;" style="edgeLabel;html=1;align=center;verticalAlign=middle;resizable=0;points=[];" vertex="1" connectable="0" parent="UQ3AOjmW09rgCbUPbbze-90">
          <mxGeometry x="0.2885" y="4" relative="1" as="geometry">
            <mxPoint x="-28" y="3" as="offset" />
          </mxGeometry>
        </mxCell>
        <mxCell id="UQ3AOjmW09rgCbUPbbze-92" value="Hozzáad" style="ellipse;whiteSpace=wrap;html=1;" vertex="1" parent="1">
          <mxGeometry x="505" y="630" width="120" height="80" as="geometry" />
        </mxCell>
        <mxCell id="UQ3AOjmW09rgCbUPbbze-93" value="Listáz" style="ellipse;whiteSpace=wrap;html=1;" vertex="1" parent="1">
          <mxGeometry x="270" y="630" width="120" height="80" as="geometry" />
        </mxCell>
        <mxCell id="UQ3AOjmW09rgCbUPbbze-94" style="rounded=0;orthogonalLoop=1;jettySize=auto;html=1;dashed=1;endArrow=none;endFill=0;startArrow=open;startFill=0;" edge="1" parent="1" target="UQ3AOjmW09rgCbUPbbze-93" source="UQ3AOjmW09rgCbUPbbze-19">
          <mxGeometry relative="1" as="geometry">
            <mxPoint x="374" y="554" as="sourcePoint" />
            <mxPoint x="970" y="650" as="targetPoint" />
          </mxGeometry>
        </mxCell>
        <mxCell id="UQ3AOjmW09rgCbUPbbze-95" value="&amp;lt;&amp;lt;extend&amp;gt;&amp;gt;" style="edgeLabel;html=1;align=center;verticalAlign=middle;resizable=0;points=[];" vertex="1" connectable="0" parent="UQ3AOjmW09rgCbUPbbze-94">
          <mxGeometry x="0.2885" y="4" relative="1" as="geometry">
            <mxPoint x="5" y="-2" as="offset" />
          </mxGeometry>
        </mxCell>
        <mxCell id="UQ3AOjmW09rgCbUPbbze-96" style="rounded=0;orthogonalLoop=1;jettySize=auto;html=1;dashed=1;endArrow=none;endFill=0;startArrow=open;startFill=0;" edge="1" parent="1" target="UQ3AOjmW09rgCbUPbbze-92" source="UQ3AOjmW09rgCbUPbbze-19">
          <mxGeometry relative="1" as="geometry">
            <mxPoint x="423" y="620" as="sourcePoint" />
            <mxPoint x="604" y="665" as="targetPoint" />
          </mxGeometry>
        </mxCell>
        <mxCell id="UQ3AOjmW09rgCbUPbbze-97" value="&amp;lt;&amp;lt;extend&amp;gt;&amp;gt;" style="edgeLabel;html=1;align=center;verticalAlign=middle;resizable=0;points=[];" vertex="1" connectable="0" parent="UQ3AOjmW09rgCbUPbbze-96">
          <mxGeometry x="0.2885" y="4" relative="1" as="geometry">
            <mxPoint x="8" y="-4" as="offset" />
          </mxGeometry>
        </mxCell>
        <mxCell id="UQ3AOjmW09rgCbUPbbze-98" value="Módosít" style="ellipse;whiteSpace=wrap;html=1;" vertex="1" parent="1">
          <mxGeometry x="590" y="560" width="120" height="80" as="geometry" />
        </mxCell>
        <mxCell id="UQ3AOjmW09rgCbUPbbze-99" style="rounded=0;orthogonalLoop=1;jettySize=auto;html=1;dashed=1;endArrow=none;endFill=0;startArrow=open;startFill=0;" edge="1" parent="1" target="UQ3AOjmW09rgCbUPbbze-98" source="UQ3AOjmW09rgCbUPbbze-19">
          <mxGeometry relative="1" as="geometry">
            <mxPoint x="466" y="606" as="sourcePoint" />
            <mxPoint x="614" y="675" as="targetPoint" />
          </mxGeometry>
        </mxCell>
        <mxCell id="UQ3AOjmW09rgCbUPbbze-100" value="&amp;lt;&amp;lt;extend&amp;gt;&amp;gt;" style="edgeLabel;html=1;align=center;verticalAlign=middle;resizable=0;points=[];" vertex="1" connectable="0" parent="UQ3AOjmW09rgCbUPbbze-99">
          <mxGeometry x="0.2885" y="4" relative="1" as="geometry">
            <mxPoint x="-18" y="-2" as="offset" />
          </mxGeometry>
        </mxCell>
        <mxCell id="UQ3AOjmW09rgCbUPbbze-101" value="Töröl" style="ellipse;whiteSpace=wrap;html=1;" vertex="1" parent="1">
          <mxGeometry x="380" y="690" width="120" height="80" as="geometry" />
        </mxCell>
        <mxCell id="UQ3AOjmW09rgCbUPbbze-102" style="rounded=0;orthogonalLoop=1;jettySize=auto;html=1;dashed=1;endArrow=none;endFill=0;startArrow=open;startFill=0;" edge="1" parent="1" target="UQ3AOjmW09rgCbUPbbze-101" source="UQ3AOjmW09rgCbUPbbze-19">
          <mxGeometry relative="1" as="geometry">
            <mxPoint x="360" y="583" as="sourcePoint" />
            <mxPoint x="771" y="595" as="targetPoint" />
          </mxGeometry>
        </mxCell>
        <mxCell id="UQ3AOjmW09rgCbUPbbze-103" value="&amp;lt;&amp;lt;extend&amp;gt;&amp;gt;" style="edgeLabel;html=1;align=center;verticalAlign=middle;resizable=0;points=[];" vertex="1" connectable="0" parent="UQ3AOjmW09rgCbUPbbze-102">
          <mxGeometry x="0.2885" y="4" relative="1" as="geometry">
            <mxPoint x="5" y="-20" as="offset" />
          </mxGeometry>
        </mxCell>
        <mxCell id="UQ3AOjmW09rgCbUPbbze-104" value="Hozzáad" style="ellipse;whiteSpace=wrap;html=1;" vertex="1" parent="1">
          <mxGeometry x="375" y="1000" width="120" height="80" as="geometry" />
        </mxCell>
        <mxCell id="UQ3AOjmW09rgCbUPbbze-105" value="Listáz" style="ellipse;whiteSpace=wrap;html=1;" vertex="1" parent="1">
          <mxGeometry x="180" y="810" width="120" height="80" as="geometry" />
        </mxCell>
        <mxCell id="UQ3AOjmW09rgCbUPbbze-106" style="rounded=0;orthogonalLoop=1;jettySize=auto;html=1;dashed=1;endArrow=none;endFill=0;startArrow=open;startFill=0;" edge="1" parent="1" target="UQ3AOjmW09rgCbUPbbze-105" source="UQ3AOjmW09rgCbUPbbze-20">
          <mxGeometry relative="1" as="geometry">
            <mxPoint x="374" y="794" as="sourcePoint" />
            <mxPoint x="970" y="890" as="targetPoint" />
          </mxGeometry>
        </mxCell>
        <mxCell id="UQ3AOjmW09rgCbUPbbze-107" value="&amp;lt;&amp;lt;extend&amp;gt;&amp;gt;" style="edgeLabel;html=1;align=center;verticalAlign=middle;resizable=0;points=[];" vertex="1" connectable="0" parent="UQ3AOjmW09rgCbUPbbze-106">
          <mxGeometry x="0.2885" y="4" relative="1" as="geometry">
            <mxPoint x="5" y="-2" as="offset" />
          </mxGeometry>
        </mxCell>
        <mxCell id="UQ3AOjmW09rgCbUPbbze-108" style="rounded=0;orthogonalLoop=1;jettySize=auto;html=1;dashed=1;endArrow=none;endFill=0;startArrow=open;startFill=0;" edge="1" parent="1" target="UQ3AOjmW09rgCbUPbbze-104" source="UQ3AOjmW09rgCbUPbbze-20">
          <mxGeometry relative="1" as="geometry">
            <mxPoint x="423" y="860" as="sourcePoint" />
            <mxPoint x="604" y="905" as="targetPoint" />
          </mxGeometry>
        </mxCell>
        <mxCell id="UQ3AOjmW09rgCbUPbbze-109" value="&amp;lt;&amp;lt;extend&amp;gt;&amp;gt;" style="edgeLabel;html=1;align=center;verticalAlign=middle;resizable=0;points=[];" vertex="1" connectable="0" parent="UQ3AOjmW09rgCbUPbbze-108">
          <mxGeometry x="0.2885" y="4" relative="1" as="geometry">
            <mxPoint x="8" y="-4" as="offset" />
          </mxGeometry>
        </mxCell>
        <mxCell id="UQ3AOjmW09rgCbUPbbze-110" value="Módosít" style="ellipse;whiteSpace=wrap;html=1;" vertex="1" parent="1">
          <mxGeometry x="510" y="950" width="120" height="80" as="geometry" />
        </mxCell>
        <mxCell id="UQ3AOjmW09rgCbUPbbze-111" style="rounded=0;orthogonalLoop=1;jettySize=auto;html=1;dashed=1;endArrow=none;endFill=0;startArrow=open;startFill=0;" edge="1" parent="1" target="UQ3AOjmW09rgCbUPbbze-110" source="UQ3AOjmW09rgCbUPbbze-20">
          <mxGeometry relative="1" as="geometry">
            <mxPoint x="466" y="846" as="sourcePoint" />
            <mxPoint x="614" y="915" as="targetPoint" />
          </mxGeometry>
        </mxCell>
        <mxCell id="UQ3AOjmW09rgCbUPbbze-112" value="&amp;lt;&amp;lt;extend&amp;gt;&amp;gt;" style="edgeLabel;html=1;align=center;verticalAlign=middle;resizable=0;points=[];" vertex="1" connectable="0" parent="UQ3AOjmW09rgCbUPbbze-111">
          <mxGeometry x="0.2885" y="4" relative="1" as="geometry">
            <mxPoint x="-18" y="-2" as="offset" />
          </mxGeometry>
        </mxCell>
        <mxCell id="UQ3AOjmW09rgCbUPbbze-113" value="Töröl" style="ellipse;whiteSpace=wrap;html=1;" vertex="1" parent="1">
          <mxGeometry x="190" y="960" width="120" height="80" as="geometry" />
        </mxCell>
        <mxCell id="UQ3AOjmW09rgCbUPbbze-114" style="rounded=0;orthogonalLoop=1;jettySize=auto;html=1;dashed=1;endArrow=none;endFill=0;startArrow=open;startFill=0;" edge="1" parent="1" target="UQ3AOjmW09rgCbUPbbze-113" source="UQ3AOjmW09rgCbUPbbze-20">
          <mxGeometry relative="1" as="geometry">
            <mxPoint x="360" y="823" as="sourcePoint" />
            <mxPoint x="771" y="835" as="targetPoint" />
          </mxGeometry>
        </mxCell>
        <mxCell id="UQ3AOjmW09rgCbUPbbze-115" value="&amp;lt;&amp;lt;extend&amp;gt;&amp;gt;" style="edgeLabel;html=1;align=center;verticalAlign=middle;resizable=0;points=[];" vertex="1" connectable="0" parent="UQ3AOjmW09rgCbUPbbze-114">
          <mxGeometry x="0.2885" y="4" relative="1" as="geometry">
            <mxPoint x="-4" y="-18" as="offset" />
          </mxGeometry>
        </mxCell>
        <mxCell id="UQ3AOjmW09rgCbUPbbze-116" value="Kiexportál" style="ellipse;whiteSpace=wrap;html=1;" vertex="1" parent="1">
          <mxGeometry x="525" y="150" width="120" height="80" as="geometry" />
        </mxCell>
        <mxCell id="UQ3AOjmW09rgCbUPbbze-117" style="rounded=0;orthogonalLoop=1;jettySize=auto;html=1;dashed=1;endArrow=none;endFill=0;startArrow=open;startFill=0;" edge="1" parent="1" target="UQ3AOjmW09rgCbUPbbze-116" source="UQ3AOjmW09rgCbUPbbze-18">
          <mxGeometry relative="1" as="geometry">
            <mxPoint x="515" y="226" as="sourcePoint" />
            <mxPoint x="1315" y="360" as="targetPoint" />
          </mxGeometry>
        </mxCell>
        <mxCell id="UQ3AOjmW09rgCbUPbbze-118" value="&amp;lt;&amp;lt;extend&amp;gt;&amp;gt;" style="edgeLabel;html=1;align=center;verticalAlign=middle;resizable=0;points=[];" vertex="1" connectable="0" parent="UQ3AOjmW09rgCbUPbbze-117">
          <mxGeometry x="0.2885" y="4" relative="1" as="geometry">
            <mxPoint x="-11" y="-14" as="offset" />
          </mxGeometry>
        </mxCell>
      </root>
    </mxGraphModel>
  </diagram>
</mxfile>
